M48
METRIC,0000.00
T01C0.559
T02C0.9
%
T02
X+001778Y+001016
X+001524Y+001016
X+001270Y+001016
X+001016Y+001016
X+001778Y+000762
X+001524Y+000762
X+001270Y+000762
X+001016Y+000762
X+001778Y+001270
X+001778Y+001524
X+001524Y+001524
X+001778Y+000508
X+001778Y+000254
X+001524Y+000254
X+001524Y+000508
X+001270Y+000508
X+001016Y+000508
T01
X+000254Y+001270
X+000254Y+000508
T02
X+001270Y+001270
X+001524Y+001270
T01
X+000508Y+001270
X+000508Y+000508
X+000762Y+001270
X+000762Y+000508
T02
X+000254Y+001524
X+000508Y+001524
X+000762Y+001524
X+000254Y+000254
X+000508Y+000254
X+000762Y+000254
T00
M30
